<svg width="21" height="22" viewBox="0 0 21 22" fill="none" xmlns="http://www.w3.org/2000/svg">
<path d="M10.5099 8.75188C11.5125 8.74822 12.311 7.94281 12.3074 6.93803C12.3037 5.93283 11.5035 5.133 10.5004 5.13214C9.48899 5.13107 8.68122 5.94572 8.68895 6.95995C8.69647 7.96107 9.50403 8.75553 10.5099 8.75188Z" fill="black"/>
<path d="M10.5 0.0495911C4.70099 0.0495911 0 4.7508 0 10.5496C0 16.3484 4.70099 21.0496 10.5 21.0496C16.299 21.0496 21 16.3484 21 10.5496C21 4.7508 16.299 0.0495911 10.5 0.0495911ZM10.515 3.24267C12.5603 3.24825 14.2018 4.92116 14.1913 6.98894C14.181 9.00902 12.5126 10.6463 10.4708 10.6394C8.44984 10.6325 6.7924 8.95703 6.80443 6.93287C6.81582 4.88657 8.47412 3.23708 10.515 3.24267ZM14.6575 12.0925C14.2052 12.5568 13.6608 12.8928 13.0563 13.1272C12.4848 13.3487 11.8586 13.4602 11.2386 13.5345C11.3325 13.6363 11.3765 13.6864 11.435 13.7448C12.2762 14.5906 13.1216 15.4321 13.9601 16.2803C14.2458 16.5694 14.3054 16.9278 14.1481 17.2636C13.9764 17.6309 13.5912 17.8724 13.2134 17.8464C12.974 17.8299 12.7873 17.7111 12.6217 17.5441C11.9866 16.9052 11.3396 16.2777 10.7178 15.6268C10.5363 15.4373 10.4495 15.4734 10.2895 15.6379C9.65076 16.2957 9.00153 16.943 8.34865 17.5869C8.05541 17.8761 7.70652 17.9285 7.36622 17.7631C7.00465 17.5882 6.77478 17.2189 6.7924 16.8474C6.80486 16.5969 6.92817 16.4049 7.10047 16.2334C7.93338 15.4023 8.76371 14.5685 9.59426 13.7354C9.64947 13.6801 9.7006 13.6215 9.78074 13.5356C8.64792 13.4172 7.62638 13.1383 6.7518 12.4545C6.64309 12.3694 6.53116 12.2874 6.43234 12.192C6.04929 11.8244 6.01083 11.4031 6.31353 10.9696C6.57284 10.5984 7.00766 10.4991 7.45989 10.7124C7.54754 10.7535 7.6309 10.8055 7.71081 10.8605C9.34054 11.9804 11.5795 12.0111 13.2157 10.9105C13.3777 10.7868 13.5511 10.6849 13.7519 10.6336C14.1421 10.533 14.5064 10.6768 14.7157 11.0184C14.9552 11.4087 14.9524 11.7894 14.6575 12.0925Z" fill="black"/>
</svg>
