<svg width="21" height="21" viewBox="0 0 21 21" fill="none" xmlns="http://www.w3.org/2000/svg">
<path d="M14.5176 6.63835C14.5215 6.63835 14.5268 6.63835 14.532 6.63835C14.6692 6.63835 14.7965 6.68101 14.9008 6.75451L14.8988 6.7532C14.975 6.81948 15.0262 6.91267 15.0386 7.01767V7.01963C15.0518 7.0997 15.059 7.19157 15.059 7.28542C15.059 7.32807 15.0577 7.37007 15.0544 7.41207V7.40617C14.9067 8.96082 14.2662 12.731 13.9407 14.4714C13.8029 15.2083 13.5319 15.4551 13.2694 15.4787C12.6991 15.5319 12.266 15.102 11.7134 14.7398C10.8485 14.1721 10.3596 13.819 9.52022 13.2658C8.54963 12.6273 9.17897 12.2749 9.73153 11.7013C9.87656 11.5504 12.3907 9.26335 12.4399 9.05598C12.4425 9.04351 12.4438 9.02973 12.4438 9.01529C12.4438 8.9641 12.4248 8.91751 12.3939 8.88207C12.3598 8.85976 12.3172 8.84729 12.2725 8.84729C12.243 8.84729 12.2148 8.8532 12.1885 8.86304L12.1898 8.86238C12.1032 8.88207 10.7216 9.79514 8.04497 11.6016C7.75294 11.8319 7.38413 11.9776 6.9825 11.9947H6.97856C6.40959 11.9258 5.89313 11.7991 5.40291 11.6186L5.45147 11.6344C4.83591 11.4336 4.347 11.3279 4.389 10.988C4.41131 10.8112 4.655 10.6303 5.12006 10.4453C7.98481 9.19707 9.89516 8.37435 10.8511 7.9771C11.9057 7.41732 13.1283 6.95663 14.4139 6.65804L14.5169 6.6377L14.5176 6.63835ZM10.4541 0.72226C5.00588 0.735385 0.593906 5.15523 0.593906 10.6054C0.593906 16.0634 5.01834 20.4885 10.477 20.4885C15.9357 20.4885 20.3602 16.0641 20.3602 10.6054C20.3602 5.15523 15.9482 0.735385 10.5013 0.72226H10.5C10.4847 0.72226 10.4694 0.72226 10.4541 0.72226Z" fill="black"/>
</svg>
