<svg width="20" height="15" viewBox="0 0 20 15" fill="none" xmlns="http://www.w3.org/2000/svg">
<path d="M8.28131 10.4758V4.62402L13.3012 7.55024L8.28131 10.4758ZM19.4469 2.78193C19.2202 1.92815 18.5798 1.26796 17.7659 1.03433L17.7486 1.0304C15.7039 0.76396 13.339 0.61171 10.9389 0.61171C10.6949 0.61171 10.4515 0.613022 10.2088 0.616303L10.246 0.615647C10.0398 0.613022 9.79707 0.611053 9.55309 0.611053C7.15297 0.611053 4.78679 0.763303 2.46416 1.05796L2.74208 1.02908C1.91152 1.2673 1.27114 1.92683 1.04893 2.76355L1.04509 2.78062C0.788942 4.16465 0.642937 5.75737 0.642937 7.38487C0.642937 7.44262 0.642937 7.50037 0.643577 7.55746V7.54827C0.643577 7.59683 0.642937 7.65458 0.642937 7.71233C0.642937 9.33983 0.789582 10.9319 1.06943 12.4761L1.04509 12.3159C1.27178 13.1697 1.91216 13.8299 2.72607 14.0635L2.74336 14.0675C4.78807 14.3339 7.15297 14.4861 9.55309 14.4861C9.79643 14.4861 10.0398 14.4848 10.2831 14.4816L10.246 14.4822C10.4522 14.4848 10.6955 14.4868 10.9389 14.4868C13.3396 14.4868 15.7052 14.3346 18.0278 14.0399L17.7499 14.0688C18.5811 13.8312 19.2214 13.171 19.4443 12.3343L19.4481 12.3172C19.7036 10.9332 19.8496 9.34049 19.8496 7.71365C19.8496 7.6559 19.8496 7.59815 19.849 7.54105V7.54958C19.849 7.50102 19.8496 7.44327 19.8496 7.38552C19.8496 5.75802 19.703 4.16596 19.4232 2.6218L19.4469 2.78193Z" fill="black"/>
</svg>
