<svg width="21" height="22" viewBox="0 0 21 22" fill="none" xmlns="http://www.w3.org/2000/svg">
<path fill-rule="evenodd" clip-rule="evenodd" d="M10.5 0.0495911C16.299 0.0495911 21 4.7506 21 10.5496C21 16.3486 16.299 21.0496 10.5 21.0496C4.70101 21.0496 0 16.3486 0 10.5496C0 4.7506 4.70101 0.0495911 10.5 0.0495911ZM11.1289 4.32665C11.8428 4.41576 12.4198 4.58774 13.0528 4.89651C13.6754 5.20115 14.0739 5.48919 14.6011 6.01347C15.095 6.50875 15.369 6.88387 15.6595 7.46617C16.0643 8.27852 16.2946 9.24421 16.3341 10.3073C16.3486 10.6699 16.3382 10.7508 16.2552 10.8544C16.0975 11.0554 15.7508 11.0222 15.6326 10.7964C15.5952 10.7217 15.5848 10.6575 15.5724 10.3674C15.5516 9.92184 15.5205 9.6338 15.4582 9.28979C15.2133 7.94074 14.5658 6.86313 13.5322 6.09015C12.6709 5.44361 11.7805 5.1286 10.6142 5.06023C10.2198 5.03743 10.1513 5.02295 10.0621 4.95456C9.89602 4.824 9.88776 4.51731 10.0475 4.37432C10.1451 4.2852 10.2136 4.27276 10.5519 4.28312C10.7283 4.28934 10.9877 4.31007 11.1289 4.32665ZM6.38441 4.55046C6.45707 4.57532 6.56914 4.63334 6.63349 4.67479C7.02779 4.93591 8.1257 6.33883 8.48476 7.03928C8.69021 7.43922 8.75871 7.73556 8.6944 7.95523C8.62795 8.19147 8.51799 8.31581 8.0261 8.71163C7.82893 8.87118 7.64418 9.0349 7.61515 9.07843C7.54043 9.18619 7.48022 9.39755 7.48022 9.54675C7.48233 9.89283 7.70648 10.5207 8.0012 11.0036C8.22947 11.3787 8.63831 11.8594 9.04303 12.2283C9.51831 12.6635 9.93754 12.9598 10.4107 13.194C11.0188 13.4966 11.3904 13.5732 11.6623 13.4468C11.7307 13.4157 11.8034 13.3743 11.8262 13.3557C11.847 13.337 12.0068 13.1422 12.1811 12.9267C12.5173 12.5039 12.5941 12.4356 12.8245 12.3568C13.1172 12.2573 13.416 12.2843 13.7169 12.4376C13.9453 12.5557 14.4433 12.8645 14.765 13.0883C15.1884 13.3847 16.0933 14.1224 16.2158 14.2696C16.4316 14.5348 16.469 14.8746 16.3237 15.2498C16.1701 15.6455 15.5724 16.3874 15.1552 16.7045C14.7775 16.9905 14.5098 17.1003 14.1569 17.1169C13.8664 17.1314 13.746 17.1065 13.3745 16.9532C10.4606 15.7533 8.13401 13.9629 6.28685 11.503C5.32179 10.2182 4.58708 8.88572 4.0848 7.50349C3.79219 6.69738 3.77768 6.34713 4.0184 5.93474C4.12219 5.76068 4.56425 5.32964 4.88594 5.08926C5.42142 4.69137 5.66838 4.54423 5.86555 4.50279C6.00045 4.47378 6.23496 4.49658 6.38441 4.55046ZM11.272 5.82905C12.5319 6.01347 13.5073 6.59789 14.1465 7.547C14.5056 8.08165 14.7297 8.70955 14.8065 9.38304C14.8335 9.62965 14.8335 10.0793 14.8045 10.154C14.7775 10.2244 14.6903 10.3197 14.6156 10.3591C14.5347 10.4005 14.3624 10.3964 14.2669 10.3467C14.1071 10.2658 14.0594 10.1374 14.0594 9.78922C14.0594 9.25251 13.9203 8.68675 13.6796 8.24742C13.4056 7.74592 13.0071 7.33148 12.5215 7.04342C12.1043 6.79475 11.4879 6.61032 10.9255 6.56474C10.7221 6.54815 10.61 6.50669 10.5332 6.41759C10.4149 6.28288 10.4025 6.10053 10.5021 5.94926C10.61 5.7814 10.776 5.75444 11.272 5.82905ZM11.7141 7.39363C12.123 7.48067 12.4364 7.6361 12.7041 7.88685C13.0486 8.21218 13.2375 8.60593 13.3205 9.17167C13.3765 9.54054 13.3537 9.68559 13.223 9.80579C13.1005 9.91769 12.8743 9.92183 12.7373 9.81614C12.6377 9.74153 12.6066 9.6628 12.5837 9.44937C12.5568 9.16545 12.507 8.96652 12.4219 8.78207C12.2392 8.39041 11.9175 8.18733 11.3738 8.12102C11.1185 8.08993 11.0417 8.06092 10.9587 7.96354C10.8072 7.78324 10.8653 7.49104 11.0749 7.38328C11.1538 7.34391 11.187 7.33976 11.3613 7.35013C11.4692 7.35634 11.6291 7.37497 11.7141 7.39363Z" fill="black"/>
</svg>
