<svg width="21" height="21" viewBox="0 0 21 21" fill="none" xmlns="http://www.w3.org/2000/svg">
<path d="M13.701 0.0833435H7.3099C1.4722 0.0833435 0.083334 1.47221 0.083334 7.29903V13.6901C0.083334 19.5277 1.4614 20.9167 7.29902 20.9167H13.6901C19.5278 20.9167 20.9167 19.5386 20.9167 13.7009V7.30991C20.9167 1.47221 19.5386 0.0833435 13.701 0.0833435ZM16.9019 14.9488H15.3828C14.8078 14.9488 14.6341 14.4822 13.6033 13.4514C12.7027 12.5833 12.3229 12.4748 12.0951 12.4748C11.7804 12.4748 11.6936 12.5616 11.6936 12.9956V14.3628C11.6936 14.7318 11.5742 14.9488 10.6085 14.9488C9.67143 14.8858 8.7627 14.6011 7.95717 14.1182C7.15164 13.6352 6.47235 12.9679 5.97526 12.171C4.79516 10.7021 3.97407 8.9782 3.57728 7.13627C3.57728 6.90841 3.66406 6.70223 4.09811 6.70223H5.61719C6.00781 6.70223 6.1489 6.87585 6.30078 7.27735C7.0386 9.44747 8.29733 11.3355 8.80729 11.3355C9.0026 11.3355 9.08939 11.2487 9.08939 10.7604V8.52515C9.02428 7.50522 8.48177 7.41837 8.48177 7.04949C8.48891 6.95216 8.53371 6.86146 8.60664 6.79662C8.67957 6.73178 8.77491 6.69792 8.8724 6.70223H11.2596C11.5851 6.70223 11.6936 6.86499 11.6936 7.25561V10.2721C11.6936 10.5977 11.8346 10.7061 11.9323 10.7061C12.1276 10.7061 12.2795 10.5977 12.6376 10.2396C13.407 9.30124 14.0357 8.25583 14.5039 7.13627C14.5517 7.00156 14.6423 6.8862 14.7618 6.80782C14.8813 6.72944 15.0232 6.69235 15.1658 6.70223H16.6849C17.1406 6.70223 17.2383 6.93009 17.1406 7.25561C16.5879 8.49344 15.904 9.66843 15.1007 10.7604C14.938 11.01 14.8729 11.1402 15.1007 11.4331C15.2526 11.661 15.7843 12.1059 16.1424 12.5291C16.6632 13.0486 17.0957 13.6497 17.4227 14.3086C17.5529 14.7318 17.3359 14.9488 16.9019 14.9488Z" fill="black"/>
</svg>
